<svg xmlns="http://www.w3.org/2000/svg" xmlns:svg="http://www.w3.org/2000/svg" id="svg3000" width="580" height="580" x="0" y="0" enable-background="new 0 0 580 580" version="1.1" viewBox="0 0 580 580" xml:space="preserve"><metadata id="metadata3013"/><defs id="defs3011"><marker id="Arrow1Send" orient="auto" overflow="visible" refX="0" refY="0"><path id="path5087" fill-rule="evenodd" stroke="#000" stroke-width="1pt" d="M 0.0,0.0 L 5.0,-5.0 L -12.5,0.0 L 5.0,5.0 L 0.0,0.0 z" transform="scale(0.2) rotate(180) translate(6,0)"/></marker><marker id="Arrow2Mend" orient="auto" overflow="visible" refX="0" refY="0"><path id="path5099" fill-rule="evenodd" stroke-linejoin="round" stroke-width=".625" d="M 8.7185878,4.0337352 L -2.2072895,0.016013256 L 8.7185884,-4.0017078 C 6.9730900,-1.6296469 6.9831476,1.6157441 8.7185878,4.0337352 z" transform="scale(0.6) rotate(180) translate(0,0)"/></marker><marker id="DotM" orient="auto" overflow="visible" refX="0" refY="0"><path id="path3896" fill-rule="evenodd" stroke="#000" stroke-width="1pt" d="M -2.5,-1.0 C -2.5,1.7600000 -4.7400000,4.0 -7.5,4.0 C -10.260000,4.0 -12.5,1.7600000 -12.5,-1.0 C -12.5,-3.7600000 -10.260000,-6.0 -7.5,-6.0 C -4.7400000,-6.0 -2.5,-3.7600000 -2.5,-1.0 z" transform="scale(0.4) translate(7.4, 1)"/></marker><marker id="DotS" orient="auto" overflow="visible" refX="0" refY="0"><path id="path3836" fill-rule="evenodd" stroke="#000" stroke-width="1pt" d="M -2.5,-1.0 C -2.5,1.7600000 -4.7400000,4.0 -7.5,4.0 C -10.260000,4.0 -12.5,1.7600000 -12.5,-1.0 C -12.5,-3.7600000 -10.260000,-6.0 -7.5,-6.0 C -4.7400000,-6.0 -2.5,-3.7600000 -2.5,-1.0 z" transform="scale(0.2) translate(7.4, 1)"/></marker><marker id="DotL" orient="auto" overflow="visible" refX="0" refY="0"><path id="path3830" fill-rule="evenodd" stroke="#000" stroke-width="1pt" d="M -2.5,-1.0 C -2.5,1.7600000 -4.7400000,4.0 -7.5,4.0 C -10.260000,4.0 -12.5,1.7600000 -12.5,-1.0 C -12.5,-3.7600000 -10.260000,-6.0 -7.5,-6.0 C -4.7400000,-6.0 -2.5,-3.7600000 -2.5,-1.0 z" transform="scale(0.8) translate(7.4, 1)"/></marker><marker id="Arrow1Mstart" orient="auto" overflow="visible" refX="0" refY="0"><path id="path3775" fill-rule="evenodd" stroke="#000" stroke-width="1pt" d="M 0.0,0.0 L 5.0,-5.0 L -12.5,0.0 L 5.0,5.0 L 0.0,0.0 z" transform="scale(0.4) translate(10,0)"/></marker><marker id="Arrow2Send" orient="auto" overflow="visible" refX="0" refY="0"><path id="path3802" fill-rule="evenodd" stroke-linejoin="round" stroke-width=".625" d="M 8.7185878,4.0337352 L -2.2072895,0.016013256 L 8.7185884,-4.0017078 C 6.9730900,-1.6296469 6.9831476,1.6157441 8.7185878,4.0337352 z" transform="scale(0.3) rotate(180) translate(-2.3,0)"/></marker><marker id="Arrow2Sstart" orient="auto" overflow="visible" refX="0" refY="0"><path id="path3799" fill-rule="evenodd" stroke-linejoin="round" stroke-width=".625" d="M 8.7185878,4.0337352 L -2.2072895,0.016013256 L 8.7185884,-4.0017078 C 6.9730900,-1.6296469 6.9831476,1.6157441 8.7185878,4.0337352 z" transform="scale(0.3) translate(-2.3,0)"/></marker><marker id="Arrow2Lend" orient="auto" overflow="visible" refX="0" refY="0"><path id="path3790" fill-rule="evenodd" stroke-linejoin="round" stroke-width=".625" d="M 8.7185878,4.0337352 L -2.2072895,0.016013256 L 8.7185884,-4.0017078 C 6.9730900,-1.6296469 6.9831476,1.6157441 8.7185878,4.0337352 z" transform="scale(1.1) rotate(180) translate(1,0)"/></marker><marker id="Arrow2Sendy" orient="auto" overflow="visible" refX="0" refY="0"><path id="path4779" fill="#ccc" fill-rule="evenodd" stroke="#ccc" stroke-linejoin="round" stroke-width=".625" d="M 8.7185878,4.0337352 L -2.2072895,0.016013256 L 8.7185884,-4.0017078 C 6.9730900,-1.6296469 6.9831476,1.6157441 8.7185878,4.0337352 z" transform="scale(0.3) rotate(180) translate(-2.3,0)"/></marker><marker id="DotS3" orient="auto" overflow="visible" refX="0" refY="0"><path id="path6167" fill="#ccc" fill-rule="evenodd" stroke="#ccc" stroke-width="1pt" d="M -2.5,-1.0 C -2.5,1.7600000 -4.7400000,4.0 -7.5,4.0 C -10.260000,4.0 -12.5,1.7600000 -12.5,-1.0 C -12.5,-3.7600000 -10.260000,-6.0 -7.5,-6.0 C -4.7400000,-6.0 -2.5,-3.7600000 -2.5,-1.0 z" transform="scale(0.2) translate(7.4, 1)"/></marker><marker id="DotMJ" orient="auto" overflow="visible" refX="0" refY="0"><path id="path4311" fill="#ccc" fill-rule="evenodd" stroke="#ccc" stroke-width="1pt" d="M -2.5,-1.0 C -2.5,1.7600000 -4.7400000,4.0 -7.5,4.0 C -10.260000,4.0 -12.5,1.7600000 -12.5,-1.0 C -12.5,-3.7600000 -10.260000,-6.0 -7.5,-6.0 C -4.7400000,-6.0 -2.5,-3.7600000 -2.5,-1.0 z" transform="scale(0.4) translate(7.4, 1)"/></marker></defs><g id="Layer_1" fill="none" stroke="none" transform="translate(0.0735,-0.43022222)"><g id="Layer_2" fill="none" stroke="none"><g id="g1327" fill="none" stroke="none"><path id="path1329" fill="none" stroke="none" stroke-width="3.408" d="M 66.275,1.768 C 24.94,1.768 1.704,23.139 1.704,66.804 v 450.123 c 0,40.844 20.895,62.229 62.192,62.229 H 515.92 c 41.307,0 62.229,-20.315 62.229,-62.229 V 66.804 c 0,-42.602 -20.923,-65.036 -63.521,-65.036 -0.003,0 -448.495,-0.143 -448.353,0 z"/></g></g></g><path id="path3797" fill="#fff" fill-opacity=".8" stroke="#fff" stroke-linecap="butt" stroke-linejoin="miter" stroke-opacity=".8" stroke-width="1" d="M 432.75 57.4375 C 432.75 57.4375 398.91579 119.56365 415.96875 164.15625 C 435.03388 214.0106 438.42084 224.77319 385.4375 239.6875 C 377.51767 228.50168 364.4673 221.1875 349.71875 221.1875 C 334.5198 221.1875 321.14844 228.95015 313.3125 240.71875 C 313.29969 240.73798 313.29403 240.762 313.28125 240.78125 C 309.72719 246.13726 307.31153 252.30752 306.40625 258.96875 C 285.10573 264.02088 260.78558 269.8823 232.34375 277.21875 C 27.288814 330.11183 219.58165 297.28774 204.71875 401.25 C 189.85584 505.21227 48.625 508.875 48.625 508.875 L 224.09375 507.96875 C 224.09375 507.96875 293.23085 513.43102 308.09375 409.46875 C 320.95047 319.53924 211.92209 323.07469 314.96875 291.4375 C 322.95816 301.89943 335.53867 308.65625 349.71875 308.65625 C 372.11035 308.65625 390.55627 291.82572 393.125 270.125 C 580.55284 220.01617 485.28919 204.45127 465.0625 160.5 C 442.31036 111.06111 461.3125 58.375 461.3125 58.375 L 432.75 57.4375 z M 182.375 119.46875 C 164.74704 119.46875 150.46875 133.74704 150.46875 151.375 C 150.46875 169.00296 164.74704 183.3125 182.375 183.3125 C 193.02955 183.3125 202.45266 178.05474 208.25 170.03125 C 208.33331 169.91595 208.4182 169.80394 208.5 169.6875 C 212.14398 164.5008 214.3125 158.1953 214.3125 151.375 C 214.3125 133.74704 200.00296 119.46875 182.375 119.46875 z"/><path id="path7191" fill="none" stroke="#fff" stroke-dasharray="none" stroke-linecap="butt" stroke-linejoin="miter" stroke-miterlimit="4" stroke-opacity=".8" stroke-width="13.831" d="M 310.90921,235.21736 213.46188,168.77633"/></svg>