<svg xmlns="http://www.w3.org/2000/svg" xmlns:svg="http://www.w3.org/2000/svg" id="svg2" width="36" height="36" fill="#000" version="1.1" viewBox="0 0 24 24"><metadata id="metadata18"/><path id="path4" fill="none" d="M0 0h24v24H0z"/><circle id="circle6" cx="6" cy="18" r="2" fill="none"/><circle id="circle8" cx="12" cy="12" r=".5" fill="none"/><path id="path12" fill="#858585" fill-opacity="1" stroke="none" d="m 14.17551,7.9808379 c -0.21202,-0.460913 -0.331857,-0.9679174 -0.331857,-1.5117948 0,-2.0372358 1.650068,-3.6873046 3.687303,-3.6873046 2.037236,0 3.687305,1.6500688 3.687305,3.6873046 0,2.0372357 -1.650069,3.6873049 -3.687305,3.6873049 -0.543877,0 -1.050882,-0.119838 -1.511795,-0.3318578 L 13.843653,12 l 2.175508,2.17551 c 0.460913,-0.21202 0.967918,-0.331857 1.511795,-0.331857 2.037236,0 3.687305,1.650068 3.687305,3.687304 0,2.037236 -1.650069,3.687304 -3.687305,3.687304 -2.037235,0 -3.687304,-1.650068 -3.687304,-3.687304 0,-0.543877 0.119838,-1.050883 0.331857,-1.511795 L 12,13.843652 5.5472169,20.296435 H 2.7817385 V 19.374609 L 14.17551,7.9808379 z m 3.355446,0.3318574 c 1.014009,0 1.843653,-0.8204252 1.843653,-1.8436522 0,-1.0232271 -0.829644,-1.8436523 -1.843653,-1.8436523 -1.014008,0 -1.843651,0.8204252 -1.843651,1.8436523 0,1.023227 0.829643,1.8436522 1.843651,1.8436522 z m 0,11.0619137 c 1.014009,0 1.843653,-0.820426 1.843653,-1.843653 0,-1.023227 -0.829644,-1.843652 -1.843653,-1.843652 -1.014008,0 -1.843651,0.820425 -1.843651,1.843652 0,1.023227 0.829643,1.843653 1.843651,1.843653 z M 12,12.460912 c 0.258112,0 0.460912,-0.202801 0.460912,-0.460912 0,-0.258111 -0.2028,-0.460913 -0.460912,-0.460913 -0.258111,0 -0.460913,0.202802 -0.460913,0.460913 0,0.258112 0.202802,0.460912 0.460913,0.460912 z M 5.5472169,3.7035646 11.078174,9.2345215 9.2345215,11.078174 2.7817385,4.6253908 V 3.7035646 z"/><circle id="circle10" cx="6" cy="6" r="2" fill="none"/></svg>