<svg xmlns="http://www.w3.org/2000/svg" xmlns:svg="http://www.w3.org/2000/svg" id="Layer_1" width="512" height="512" x="0" y="0" enable-background="new 0 0 512 512" version="1.1" viewBox="0 0 512 512" xml:space="preserve"><metadata id="metadata5351"/><path id="path5345" fill="#b9121b" fill-opacity="1" d="M 384,224 V 128 C 384,57.438 326.594,0 256,0 185.422,0 128,57.438 128,128 v 96 c -35.344,0 -64,28.656 -64,64 v 160 c 0,35.344 28.656,64 64,64 h 256 c 35.344,0 64,-28.656 64,-64 V 288 c 0,-35.344 -28.656,-64 -64,-64 z M 272,379.094 V 432 c 0,8.844 -7.156,16 -16,16 -8.844,0 -16,-7.156 -16,-16 v -52.906 c -9.391,-5.563 -16,-15.375 -16,-27.094 0,-17.688 14.328,-32 32,-32 17.672,0 32,14.313 32,32 0,11.719 -6.609,21.531 -16,27.094 z M 320,224 H 192 v -96 c 0,-35.313 28.703,-64 64,-64 35.281,0 64,28.688 64,64 v 96 z"/></svg>