<svg xmlns="http://www.w3.org/2000/svg" xmlns:svg="http://www.w3.org/2000/svg" id="svg2420" width="1192" height="1192" version="1.0"><metadata id="metadata7361"/><defs id="defs2422"><clipPath id="id48"><path id="path24" d="m 262.22,628.72 70.02,0 0,-70.92 -70.02,0 0,70.92 z"/></clipPath></defs><path id="path82" fill="#333" fill-opacity=".6" fill-rule="nonzero" stroke="none" d="M 596 116 C 473.15822 116 350.32038 162.86556 256.59375 256.59375 C 69.140496 444.03626 69.140496 747.96375 256.59375 935.40625 C 444.04701 1122.8626 747.95301 1122.8626 935.40625 935.40625 C 1122.8596 747.96375 1122.8596 444.03626 935.40625 256.59375 C 841.67963 162.86556 718.84178 116 596 116 z M 594.4375 240.09375 C 686.04128 239.68716 777.79071 274.45068 847.6875 344.34375 C 979.2441 475.90717 986.2494 684.81291 868.75 824.65625 L 769.5625 725.46875 L 769.5625 563.71875 C 769.5625 478.04857 700.12801 408.59375 614.46875 408.59375 L 452.6875 408.59375 L 367.34375 323.25 C 432.88661 268.17186 513.61064 240.45251 594.4375 240.09375 z M 323.25 367.34375 L 370.65625 414.75 L 320.09375 467.40625 L 376.59375 526.15625 L 482.0625 526.15625 L 652.03125 696.125 L 652.03125 858.65625 L 710.75 810.09375 L 769.5625 858.65625 L 769.5625 813.65625 L 824.65625 868.75 C 684.81765 986.26394 475.88294 979.21963 344.3125 847.65625 C 212.75591 716.09283 205.75067 507.1871 323.25 367.34375 z M 570.25 526.15625 L 614.46875 526.15625 C 635.20148 526.15625 652.03125 542.9704 652.03125 563.71875 L 652.03125 607.9375 L 570.25 526.15625 z"/></svg>