<svg xmlns="http://www.w3.org/2000/svg" xmlns:svg="http://www.w3.org/2000/svg" id="svg4538" width="61.085" height="56.627" version="1.1" viewBox="0 0 61.085 56.627"><metadata id="metadata4544"/><title id="title4518">wlm-icon-note-black</title><path id="path4520" fill="none" stroke="#0068c8" stroke-linecap="round" stroke-linejoin="round" stroke-opacity=".8" stroke-width="3" d="m 20.67829,19.887635 6.39,-12.4500002 a 3,3 0 0 1 2.8,-1.62 l 6.41,0.32"/><path id="path4522" fill="none" stroke="#0068c8" stroke-linecap="round" stroke-linejoin="round" stroke-opacity=".8" stroke-width="3" d="m 48.27829,6.6976348 8.48,0.47 a 3,3 0 0 1 2.63,4.0800002 l -16.74,42 a 3,3 0 0 1 -3.38,1.82 l -29.29,-6 a 3,3 0 0 1 -2.05,-4.29 l 8.68,-16.97"/><polyline id="polyline4524" fill="none" stroke="#0068c8" stroke-linecap="round" stroke-linejoin="round" stroke-opacity=".8" stroke-width="3" points="64.08 21.9 48.38 60.35 22.02 55.57" transform="translate(-9.45171,-11.692365)"/><path id="path4526" fill="none" stroke="#0068c8" stroke-linecap="round" stroke-linejoin="round" stroke-opacity=".8" stroke-width="3" d="m 44.47829,10.367635 -6.24,-0.4000002 a 2.1,2.1 0 0 1 -1.95,-2.09 v -4.29 a 2.08,2.08 0 0 1 2.26,-2.08 l 8.61,0.59 a 2.08,2.08 0 0 1 1.66,3.12 l -2.4,4.09 a 2.07,2.07 0 0 1 -1.94,1.0600002 z"/><line id="line4528" x1="29.458" x2="45.028" y1="17.108" y2="18.498" fill="none" stroke="#0068c8" stroke-linecap="round" stroke-linejoin="round" stroke-opacity=".8" stroke-width="3"/><line id="line4530" x1="27.368" x2="42.938" y1="21.688" y2="23.308" fill="none" stroke="#0068c8" stroke-linecap="round" stroke-linejoin="round" stroke-opacity=".8" stroke-width="3"/><line id="line4532" x1="27.248" x2="40.838" y1="26.648" y2="28.118" fill="none" stroke="#0068c8" stroke-linecap="round" stroke-linejoin="round" stroke-opacity=".8" stroke-width="3"/><line id="line4534" x1="29.698" x2="38.748" y1="31.888" y2="32.928" fill="none" stroke="#0068c8" stroke-linecap="round" stroke-linejoin="round" stroke-opacity=".8" stroke-width="3"/><path id="path4536" fill="none" stroke="#0068c8" stroke-linecap="round" stroke-linejoin="round" stroke-opacity=".8" stroke-width="3" d="m 27.24829,26.647635 5.22,11.16 -11,-5.36 a 2.49,2.49 0 0 1 -0.59,-0.41 l -18.71,-18.67 c -1.17000005,-1.17 -0.77,-3.4500002 0.88,-5.1100002 v 0 c 1.66,-1.66 3.95,-2.05 5.11,-0.88 l 18.66,18.6500002 a 2.29,2.29 0 0 1 0.43,0.62 z"/></svg>