<svg xmlns="http://www.w3.org/2000/svg" xmlns:svg="http://www.w3.org/2000/svg" xmlns:xlink="http://www.w3.org/1999/xlink" id="svg11300" width="48" height="48" version="1.1"><defs id="defs3"><linearGradient id="linearGradient3805"><stop id="stop3807" offset="0" stop-color="#c27e13" stop-opacity="1"/><stop id="stop3813" offset=".269" stop-color="#c27e13" stop-opacity=".498"/><stop id="stop3809" offset="1" stop-color="#c27e13" stop-opacity=".974"/></linearGradient><linearGradient id="linearGradient3742"><stop id="stop3744" offset="0" stop-color="#666864" stop-opacity="1"/><stop id="stop3750" offset=".5" stop-color="#494a47" stop-opacity=".498"/><stop id="stop3746" offset="1" stop-color="#666864" stop-opacity="1"/></linearGradient><linearGradient id="linearGradient2257"><stop id="stop2259" offset="0" stop-color="#fff" stop-opacity="1"/><stop id="stop2261" offset="1" stop-color="#fff" stop-opacity="0"/></linearGradient><linearGradient id="linearGradient3087"><stop id="stop3089" offset="0" stop-color="#3465a4" stop-opacity="1"/><stop id="stop3095" offset="0" stop-color="#9fbce1" stop-opacity="1"/><stop id="stop2242" offset="0" stop-color="#6b95ca" stop-opacity="1"/><stop id="stop2244" offset=".75" stop-color="#3d6aa5" stop-opacity="1"/><stop id="stop3091" offset="1" stop-color="#386eb4" stop-opacity="1"/></linearGradient><linearGradient id="linearGradient3077"><stop id="stop3079" offset="0" stop-color="#98a0a9" stop-opacity="1"/><stop id="stop3081" offset="1" stop-color="#c3d0dd" stop-opacity="1"/></linearGradient><linearGradient id="linearGradient3061"><stop id="stop3063" offset="0" stop-color="#fff" stop-opacity="1"/><stop id="stop3065" offset="1" stop-color="#000" stop-opacity="1"/></linearGradient><linearGradient id="linearGradient3049"><stop id="stop3051" offset="0" stop-color="#b6b6b6" stop-opacity="1"/><stop id="stop2262" offset=".5" stop-color="#f2f2f2" stop-opacity="1"/><stop id="stop2264" offset=".676" stop-color="#fafafa" stop-opacity="1"/><stop id="stop2268" offset=".841" stop-color="#d8d8d8" stop-opacity="1"/><stop id="stop2266" offset=".875" stop-color="#f2f2f2" stop-opacity="1"/><stop id="stop3053" offset="1" stop-color="#dbdbdb" stop-opacity="1"/></linearGradient><linearGradient id="linearGradient3041"><stop id="stop3043" offset="0" stop-color="#000" stop-opacity="1"/><stop id="stop3045" offset="1" stop-color="#000" stop-opacity="0"/></linearGradient><linearGradient id="linearGradient3055" x1="19.648" x2="20.631" y1="42.254" y2="6.776" gradientTransform="matrix(0.87827,0,0,0.87827,-0.9434039,3.282804)" gradientUnits="userSpaceOnUse" xlink:href="#linearGradient3049"/><linearGradient id="linearGradient3067" x1="50.153" x2="25.291" y1="-3.632" y2="-4.3" gradientTransform="matrix(0.87826988,0,0,0.87826988,1.6925621,2.9668149)" gradientUnits="userSpaceOnUse" xlink:href="#linearGradient3061"/><radialGradient id="radialGradient2260" cx="24.813" cy="39.125" r="17.688" fx="24.813" fy="39.125" gradientTransform="matrix(1,0,0,0.374558,0,24.47041)" gradientUnits="userSpaceOnUse" xlink:href="#linearGradient3041"/><linearGradient id="linearGradient3139" x1="12.005" x2="10.651" y1="35.688" y2="33.195" gradientTransform="matrix(1.007254,-0.02636526,0.02636526,1.007254,1.0126591,-1.2060461)" gradientUnits="userSpaceOnUse" xlink:href="#linearGradient2257"/><radialGradient id="radialGradient3145" cx="24.813" cy="39.125" r="17.688" fx="24.813" fy="39.125" gradientTransform="matrix(1,0,0,0.374558,0,24.47041)" gradientUnits="userSpaceOnUse" xlink:href="#linearGradient3041"/><filter id="ShadowBlur" x="0" y="0" filterUnits="userSpaceOnUse"><feGaussianBlur id="feGaussianBlur6" in="SourceGraphic" stdDeviation="2"/></filter><clipPath id="clipoutline2" clipPathUnits="userSpaceOnUse"><path id="outline2" d="M 55.8,12 L 56.56,12.16 C 65.4,9.22 85.24,20.8 80.82,31.12 C 79.7,32.74 79.89,35.62 81.24,37.43 L 56.43,62.25 C 55.04,60.86 51.95,60.89 50.53,62.25 L 9.5,101.63 C 5.76,105.22 8.7,108.27 10.28,109.88 L 17.64,117.24 C 19.25,118.84 23.5,121 26.52,117.8 L 65.24,76.99 C 66.59,75.57 66.6,72.52 65.24,71.12 C 65.24,71.12 65.25,71.1 65.24,71.1 L 90.15,46.2 C 92.78,48.57 95.263827,48.774854 97.62,48.13 C 102.17057,46.884568 104.70725,51.336643 107.43,54.59 L 106.2,55.8 C 104.38,57.64 104.55,60.74 106.59,62.78 C 108.63,64.82 111.74,64.99 113.56,63.17 L 121.7,55.04 C 123.52,53.2 123.35,50.1 121.3,48.07 C 119.46,46.22 116.79,45.98 114.93,47.3 C 109.35,41.04 112.28,40.1 104.92,31.95 L 91.13,17.86 C 81.2,8.12 68.3,8.13 55.8,12 z"/></clipPath><clipPath id="clipoutline1" clipPathUnits="userSpaceOnUse"><path id="outline1" d="M 22.42,17.2 L 35.38,30.15 L 32.88,38.93 L 24.1,41.43 L 11.14,28.47 L 5.28,34.33 L 20.17,55.79 L 37.73,52.45 L 99.36,118.07 C 108.8,127.58 121.53,113.32 112.7,105.2 L 46.85,42.92 L 50.86,25.16 L 28.72,10.89 L 22.42,17.2 z M 103.48,109.17 C 105.16,107.49 107.88,107.49 109.56,109.17 C 111.24,110.85 111.24,113.57 109.56,115.25 C 107.88,116.92 105.16,116.92 103.48,115.25 C 101.8,113.57 101.8,110.85 103.48,109.17 z"/></clipPath><linearGradient id="lgdg" x1="73.88" x2="84.3" y1="66.2" y2="86.68" gradientTransform="translate(-0.30267,-3.20138)" gradientUnits="userSpaceOnUse" xlink:href="#BlackTransparent"/><linearGradient id="lg55" x1="550.96" x2="655.42" y1="-137.5" y2="-241.2" gradientTransform="matrix(0.26,0,0,0.26,-106.57,101.57)" gradientUnits="userSpaceOnUse" xlink:href="#WhiteTransparent"/><linearGradient id="lg51" x1="646.24" x2="607.66" y1="-252.6" y2="-186.26" gradientTransform="matrix(0.2,0,0,0.2,-80.94,88.3)" gradientUnits="userSpaceOnUse" xlink:href="#WhiteTransparent"/><linearGradient id="lg19" x1="75.1" x2="71.77" y1="189.14" y2="185.8" gradientTransform="matrix(1.05,0,0,1.05,0.13,-140.54)" xlink:href="#BlackTransparent"/><linearGradient id="lg16" x1="577.03" x2="626.1" y1="124" y2="124" gradientTransform="matrix(7.75e-2,7.75e-2,-0.36,0.36,78.84,-44.8)" gradientUnits="userSpaceOnUse" spreadMethod="pad" xlink:href="#WhiteTransparent"/><linearGradient id="lg12" x1="146.15" x2="146.15" y1="288.57" y2="368.27" gradientTransform="matrix(0.3,0.3,-9e-2,9e-2,78.84,-44.8)" gradientUnits="userSpaceOnUse" xlink:href="#WhiteTransparent"/><linearGradient id="lg09" x1="258.96" x2="258.96" y1="62.74" y2="-1.72" gradientTransform="matrix(0.33,0.33,-9.44e-2,9.44e-2,9.03,-48.1)" gradientUnits="userSpaceOnUse" xlink:href="#WhiteTransparent"/><linearGradient id="lg05" x1="543.1" x2="419.88" y1="286.56" y2="286.56" gradientTransform="matrix(9.98e-2,9.98e-2,-0.28,0.28,78.84,-44.8)" gradientUnits="userSpaceOnUse" spreadMethod="pad" xlink:href="#BlackTransparent"/><linearGradient id="lg02" x1="512.7" x2="615.59" y1="254.36" y2="254.83" gradientTransform="matrix(8.07e-2,7.75e-2,-0.35,0.36,77.14,-45.89)" gradientUnits="userSpaceOnUse" xlink:href="#WhiteTransparent"/><linearGradient id="lg1999" x1="637.03" x2="638.3" y1="69.99" y2="118.3" gradientTransform="matrix(0.1,0.1,-0.22,0.2,75.6,-33.53)" gradientUnits="userSpaceOnUse" xlink:href="#WhiteTransparent"/><linearGradient id="BlackTransparent"><stop id="stop3272" offset="0" stop-color="#000" stop-opacity="1"/><stop id="stop3274" offset="1" stop-color="#000" stop-opacity="0"/></linearGradient><linearGradient id="WhiteTransparent"><stop id="stop3267" offset="0" stop-color="#fff" stop-opacity="1"/><stop id="stop3269" offset="1" stop-color="#fff" stop-opacity="0"/></linearGradient><filter id="ShadowBlur-3" x="0" y="0" filterUnits="userSpaceOnUse"><feGaussianBlur id="feGaussianBlur6-4" in="SourceGraphic" stdDeviation="2"/></filter><clipPath id="clipoutline2-5" clipPathUnits="userSpaceOnUse"><path id="outline2-9" d="M 55.8,12 L 56.56,12.16 C 65.4,9.22 85.24,20.8 80.82,31.12 C 79.7,32.74 79.89,35.62 81.24,37.43 L 56.43,62.25 C 55.04,60.86 51.95,60.89 50.53,62.25 L 9.5,101.63 C 5.76,105.22 8.7,108.27 10.28,109.88 L 17.64,117.24 C 19.25,118.84 23.5,121 26.52,117.8 L 65.24,76.99 C 66.59,75.57 66.6,72.52 65.24,71.12 C 65.24,71.12 65.25,71.1 65.24,71.1 L 90.15,46.2 C 92.78,48.57 95.263827,48.774854 97.62,48.13 C 102.17057,46.884568 104.70725,51.336643 107.43,54.59 L 106.2,55.8 C 104.38,57.64 104.55,60.74 106.59,62.78 C 108.63,64.82 111.74,64.99 113.56,63.17 L 121.7,55.04 C 123.52,53.2 123.35,50.1 121.3,48.07 C 119.46,46.22 116.79,45.98 114.93,47.3 C 109.35,41.04 112.28,40.1 104.92,31.95 L 91.13,17.86 C 81.2,8.12 68.3,8.13 55.8,12 z"/></clipPath><clipPath id="clipoutline1-1" clipPathUnits="userSpaceOnUse"><path id="outline1-3" d="M 22.42,17.2 L 35.38,30.15 L 32.88,38.93 L 24.1,41.43 L 11.14,28.47 L 5.28,34.33 L 20.17,55.79 L 37.73,52.45 L 99.36,118.07 C 108.8,127.58 121.53,113.32 112.7,105.2 L 46.85,42.92 L 50.86,25.16 L 28.72,10.89 L 22.42,17.2 z M 103.48,109.17 C 105.16,107.49 107.88,107.49 109.56,109.17 C 111.24,110.85 111.24,113.57 109.56,115.25 C 107.88,116.92 105.16,116.92 103.48,115.25 C 101.8,113.57 101.8,110.85 103.48,109.17 z"/></clipPath><linearGradient id="lgdg-1" x1="73.88" x2="84.3" y1="66.2" y2="86.68" gradientTransform="translate(-0.30267,-3.20138)" gradientUnits="userSpaceOnUse" xlink:href="#BlackTransparent-0"/><linearGradient id="lg55-4" x1="550.96" x2="655.42" y1="-137.5" y2="-241.2" gradientTransform="matrix(0.26,0,0,0.26,-106.57,101.57)" gradientUnits="userSpaceOnUse" xlink:href="#WhiteTransparent-1"/><linearGradient id="lg51-0" x1="646.24" x2="607.66" y1="-252.6" y2="-186.26" gradientTransform="matrix(0.2,0,0,0.2,-80.94,88.3)" gradientUnits="userSpaceOnUse" xlink:href="#WhiteTransparent-1"/><linearGradient id="lg19-8" x1="2482.957" x2="2375.498" y1="6145.308" y2="6037.526" gradientUnits="userSpaceOnUse" xlink:href="#BlackTransparent-0"/><linearGradient id="lg16-0" x1="577.03" x2="626.1" y1="124" y2="124" gradientTransform="matrix(0.0775,0.0775,-0.36,0.36,78.84,-44.8)" gradientUnits="userSpaceOnUse" spreadMethod="pad" xlink:href="#WhiteTransparent-1"/><linearGradient id="lg12-5" x1="146.15" x2="146.15" y1="288.57" y2="368.27" gradientTransform="matrix(0.3,0.3,-0.09,0.09,78.84,-44.8)" gradientUnits="userSpaceOnUse" xlink:href="#WhiteTransparent-1"/><linearGradient id="lg09-3" x1="258.96" x2="258.96" y1="62.74" y2="-1.72" gradientTransform="matrix(0.33,0.33,-0.0944,0.0944,9.03,-48.1)" gradientUnits="userSpaceOnUse" xlink:href="#WhiteTransparent-1"/><linearGradient id="lg05-6" x1="543.1" x2="419.88" y1="286.56" y2="286.56" gradientTransform="matrix(0.0998,0.0998,-0.28,0.28,78.84,-44.8)" gradientUnits="userSpaceOnUse" spreadMethod="pad" xlink:href="#BlackTransparent-0"/><linearGradient id="lg02-7" x1="512.7" x2="615.59" y1="254.36" y2="254.83" gradientTransform="matrix(0.0807,0.0775,-0.35,0.36,77.14,-45.89)" gradientUnits="userSpaceOnUse" xlink:href="#WhiteTransparent-1"/><linearGradient id="lg1999-8" x1="637.03" x2="638.3" y1="69.99" y2="118.3" gradientTransform="matrix(0.1,0.1,-0.22,0.2,75.6,-33.53)" gradientUnits="userSpaceOnUse" xlink:href="#WhiteTransparent-1"/><linearGradient id="BlackTransparent-0"><stop id="stop3550" offset="0" stop-color="#000" stop-opacity="1"/><stop id="stop3552" offset="1" stop-color="#000" stop-opacity="0"/></linearGradient><linearGradient id="WhiteTransparent-1"><stop id="stop3545" offset="0" stop-color="#fff" stop-opacity="1"/><stop id="stop3547" offset="1" stop-color="#fff" stop-opacity="0"/></linearGradient><linearGradient id="linearGradient3748" x1="-32.164" x2="-34.733" y1="11.983" y2="14.757" gradientTransform="translate(69.519608,-1.684877)" gradientUnits="userSpaceOnUse" xlink:href="#linearGradient3742"/><linearGradient id="linearGradient3758" x1="29.556" x2="30.433" y1="17.723" y2="18.63" gradientTransform="matrix(0.87827,0,0,0.87827,1.8671111,3.903835)" gradientUnits="userSpaceOnUse" xlink:href="#linearGradient3077"/><linearGradient id="linearGradient3760" x1="38.228" x2="37.535" y1="13.603" y2="6.629" gradientTransform="matrix(0.87827,0,0,0.87827,1.8671111,3.903835)" gradientUnits="userSpaceOnUse" xlink:href="#linearGradient3077"/><linearGradient id="linearGradient3811" x1="15.91" x2="18.385" y1="29.262" y2="31.737" gradientUnits="userSpaceOnUse" xlink:href="#linearGradient3805"/><linearGradient id="linearGradient3820" x1="-32.164" x2="-34.733" y1="11.983" y2="14.757" gradientTransform="translate(69.519608,-1.684877)" gradientUnits="userSpaceOnUse" xlink:href="#linearGradient3742"/><linearGradient id="linearGradient3811-9" x1="15.91" x2="18.385" y1="29.262" y2="31.737" gradientTransform="matrix(0.70710678,-0.70710678,0.70710678,0.70710678,118.87476,36.669709)" gradientUnits="userSpaceOnUse" xlink:href="#linearGradient3805-8"/><linearGradient id="linearGradient3805-8"><stop id="stop3807-3" offset="0" stop-color="#c27e13" stop-opacity="1"/><stop id="stop3813-6" offset=".269" stop-color="#c27e13" stop-opacity=".498"/><stop id="stop3809-4" offset="1" stop-color="#c27e13" stop-opacity=".974"/></linearGradient><linearGradient id="linearGradient3758-7" x1="29.556" x2="30.433" y1="17.723" y2="18.63" gradientTransform="matrix(0.87827,0,0,0.87827,150.91626,23.296793)" gradientUnits="userSpaceOnUse" xlink:href="#linearGradient3077-1"/><linearGradient id="linearGradient3077-1"><stop id="stop3079-5" offset="0" stop-color="#98a0a9" stop-opacity="1"/><stop id="stop3081-9" offset="1" stop-color="#c3d0dd" stop-opacity="1"/></linearGradient><linearGradient id="linearGradient3067-4" x1="50.153" x2="25.291" y1="-3.632" y2="-4.3" gradientTransform="matrix(0.87826988,0,0,0.87826988,120.30601,-90.957017)" gradientUnits="userSpaceOnUse" xlink:href="#linearGradient3061-4"/><linearGradient id="linearGradient3061-4"><stop id="stop3063-2" offset="0" stop-color="#fff" stop-opacity="1"/><stop id="stop3065-0" offset="1" stop-color="#000" stop-opacity="1"/></linearGradient><radialGradient id="radialGradient3145-0" cx="24.813" cy="39.125" r="17.688" fx="24.813" fy="39.125" gradientTransform="matrix(1,0,0,0.374558,0,24.47041)" gradientUnits="userSpaceOnUse" xlink:href="#linearGradient3041-0"/><linearGradient id="linearGradient3041-0"><stop id="stop3043-0" offset="0" stop-color="#000" stop-opacity="1"/><stop id="stop3045-8" offset="1" stop-color="#000" stop-opacity="0"/></linearGradient><linearGradient id="linearGradient3760-1" x1="38.228" x2="37.535" y1="13.603" y2="6.629" gradientTransform="matrix(0.87827,0,0,0.87827,1.8671111,3.903835)" gradientUnits="userSpaceOnUse" xlink:href="#linearGradient3077-1"/><linearGradient id="linearGradient3850"><stop id="stop3852" offset="0" stop-color="#98a0a9" stop-opacity="1"/><stop id="stop3854" offset="1" stop-color="#c3d0dd" stop-opacity="1"/></linearGradient><linearGradient id="linearGradient3863" x1="38.228" x2="37.535" y1="13.603" y2="6.629" gradientTransform="matrix(0.87827,0,0,0.87827,150.91626,23.296793)" gradientUnits="userSpaceOnUse" xlink:href="#linearGradient3077-1"/><linearGradient id="linearGradient4719" x1="166.954" x2="171.733" y1="48.513" y2="48.513" gradientUnits="userSpaceOnUse" xlink:href="#linearGradient3805-8"/><linearGradient id="linearGradient4725" x1="166.954" x2="171.733" y1="48.513" y2="48.513" gradientUnits="userSpaceOnUse" xlink:href="#linearGradient3805-8"/><linearGradient id="linearGradient3049-644"><stop id="stop3616" offset="0" stop-color="#b6b6b6" stop-opacity="1"/><stop id="stop3618" offset=".5" stop-color="#f2f2f2" stop-opacity="1"/><stop id="stop3620" offset=".676" stop-color="#fafafa" stop-opacity="1"/><stop id="stop3622" offset=".841" stop-color="#d8d8d8" stop-opacity="1"/><stop id="stop3624" offset=".875" stop-color="#f2f2f2" stop-opacity="1"/><stop id="stop3626" offset="1" stop-color="#dbdbdb" stop-opacity="1"/></linearGradient><linearGradient id="linearGradient3783" x1="-32.164" x2="-34.733" y1="11.983" y2="14.757" gradientTransform="translate(69.519608,-1.684877)" gradientUnits="userSpaceOnUse" xlink:href="#linearGradient3742"/><linearGradient id="linearGradient3788" x1="-32.164" x2="-34.733" y1="11.983" y2="14.757" gradientTransform="matrix(0.99994307,0.01067021,-0.01067021,0.99994307,68.784099,-0.97713833)" gradientUnits="userSpaceOnUse" xlink:href="#linearGradient3742"/><linearGradient id="linearGradient3790" x1="166.954" x2="171.733" y1="48.513" y2="48.513" gradientUnits="userSpaceOnUse" xlink:href="#linearGradient3805-8"/><linearGradient id="linearGradient3793" x1="166.954" x2="171.733" y1="48.513" y2="48.513" gradientTransform="matrix(0.70710678,0.70710678,-0.70710678,0.70710678,-66.505551,-125.50913)" gradientUnits="userSpaceOnUse" xlink:href="#linearGradient3805-8"/></defs><metadata id="metadata4"/><g id="layer1"><path id="path3917" fill="#fff" fill-opacity=".8" stroke="none" stroke-width="2.1" d="M 29.40625 6.875 L 14.40625 21.875 L 12.28125 24 L 14.40625 26.125 L 29.40625 41.125 L 33.625 36.875 L 25.6875 28.9375 C 27.823391 26.030471 27.785819 22.018882 25.625 19.125 L 33.625 11.125 L 29.40625 6.875 z M 23.8125 21.03125 C 24.998291 22.906561 24.998291 25.187189 23.8125 27.0625 L 20.8125 24.0625 L 23.8125 21.03125 z" baseline-shift="baseline" color="#000" direction="ltr" display="inline" enable-background="accumulate" font-family="Sans" font-size="medium" font-stretch="normal" font-style="normal" font-variant="normal" font-weight="normal" letter-spacing="normal" overflow="visible" text-anchor="start" text-decoration="none" visibility="visible" word-spacing="normal" writing-mode="lr-tb" style="text-indent:0;text-align:start;line-height:normal;text-transform:none;block-progression:tb;marker:none;-inkscape-font-specification:Sans"/></g><style id="style3292" type="text/css"/><style id="style3570" type="text/css"/></svg>