<svg xmlns="http://www.w3.org/2000/svg" xmlns:svg="http://www.w3.org/2000/svg" id="svg3000" width="580" height="580" x="0" y="0" enable-background="new 0 0 580 580" version="1.1" viewBox="0 0 580 580" xml:space="preserve"><metadata id="metadata3013"/><path font-size="medium" style="text-indent:0;text-align:start;line-height:normal;text-transform:none;block-progression:tb;marker:none;-inkscape-font-specification:Sans" id="path5190" fill="#333" fill-opacity=".6" fill-rule="nonzero" stroke="none" stroke-width="21.778" d="m 218.34075,237.73899 -15.34054,8.99914 4.25706,8.09655 70.88389,134.34982 4.28226,8.09655 15.34053,-8.99912 -4.25706,-8.07001 -70.88389,-134.37636 -4.28225,-8.09657 z" baseline-shift="baseline" color="#000" direction="ltr" display="inline" enable-background="accumulate" font-family="Sans" font-stretch="normal" font-style="normal" font-variant="normal" font-weight="normal" letter-spacing="normal" overflow="visible" text-anchor="start" text-decoration="none" visibility="visible" word-spacing="normal" writing-mode="lr-tb"/><path font-size="medium" style="text-indent:0;text-align:start;line-height:normal;text-transform:none;block-progression:tb;marker:none;-inkscape-font-specification:Sans" id="path5192" fill="#333" fill-opacity=".6" fill-rule="nonzero" stroke="none" stroke-width="21.776" d="m 249.99358,202.23035 -8.46764,16.28105 7.6636,4.48396 129.62774,76.14729 7.66359,4.51065 8.46763,-16.28105 -7.63846,-4.51065 -129.65286,-76.1206 -7.6636,-4.51065 z" baseline-shift="baseline" color="#000" direction="ltr" display="inline" enable-background="accumulate" font-family="Sans" font-stretch="normal" font-style="normal" font-variant="normal" font-weight="normal" letter-spacing="normal" overflow="visible" text-anchor="start" text-decoration="none" visibility="visible" word-spacing="normal" writing-mode="lr-tb"/><path font-size="medium" style="text-indent:0;text-align:start;line-height:normal;text-transform:none;block-progression:tb;marker:none;-inkscape-font-specification:Sans" id="path3000" fill="#333" fill-opacity=".6" fill-rule="nonzero" stroke="none" stroke-width="21.778" d="m 157.26647,245.92944 -0.93619,7.69995 -15.51044,127.31625 -0.93619,7.72221 17.53464,1.64681 0.93618,-7.7222 15.48513,-127.294 0.9615,-7.7222 -17.53463,-1.64682 z" baseline-shift="baseline" color="#000" direction="ltr" display="inline" enable-background="accumulate" font-family="Sans" font-stretch="normal" font-style="normal" font-variant="normal" font-weight="normal" letter-spacing="normal" overflow="visible" text-anchor="start" text-decoration="none" visibility="visible" word-spacing="normal" writing-mode="lr-tb"/><path id="path7850" fill="#333" fill-opacity=".6" fill-rule="nonzero" stroke="none" stroke-dasharray="none" stroke-linecap="square" stroke-linejoin="miter" stroke-miterlimit="4" stroke-opacity=".6" stroke-width="1.5" d="m 291.05394,219.77986 a 70.362106,70.362106 0 1 1 -140.72421,0 70.362106,70.362106 0 1 1 140.72421,0 z" transform="matrix(1.0512965,0,0,1.0512965,-50.534545,-54.135564)"/><path id="path7852-7" fill="#333" fill-opacity=".6" fill-rule="nonzero" stroke="#333" stroke-dasharray="none" stroke-linecap="square" stroke-linejoin="miter" stroke-miterlimit="4" stroke-opacity=".6" stroke-width="1.5" d="m 519.08806,364.32388 a 53.537739,53.537739 0 1 1 -107.07548,0 53.537739,53.537739 0 1 1 107.07548,0 z" transform="translate(-26.902515,-46.053449)"/><path id="path7852-4" fill="#333" fill-opacity=".6" fill-rule="nonzero" stroke="#333" stroke-dasharray="none" stroke-linecap="square" stroke-linejoin="miter" stroke-miterlimit="4" stroke-opacity=".6" stroke-width="1.5" d="m 519.08806,364.32388 a 53.537739,53.537739 0 1 1 -107.07548,0 53.537739,53.537739 0 1 1 107.07548,0 z" transform="translate(-149.10378,73.411962)"/><path id="path7852-8" fill="#333" fill-opacity=".6" fill-rule="nonzero" stroke="#333" stroke-dasharray="none" stroke-linecap="square" stroke-linejoin="miter" stroke-miterlimit="4" stroke-opacity=".6" stroke-width="1.5" d="m 519.08806,364.32388 a 53.537739,53.537739 0 1 1 -107.07548,0 53.537739,53.537739 0 1 1 107.07548,0 z" transform="translate(-322.37422,77.059762)"/><flowRoot id="flowRoot9774" fill="#333" fill-opacity=".6" stroke="none" font-family="Sans" font-size="256" font-style="normal" font-weight="bold" letter-spacing="0" transform="translate(55.628932,-63.836479)" word-spacing="0" xml:space="preserve" style="line-height:125%;-inkscape-font-specification:Sans Bold"><flowRegion id="flowRegion9776"><rect style="-inkscape-font-specification:Sans Bold" id="rect9778" width="257.17" height="286.352" x="321.918" y="71.132" fill="#333" fill-opacity=".6" font-size="256" font-weight="bold"/></flowRegion><flowPara id="flowPara9780">+</flowPara></flowRoot></svg>