<svg xmlns="http://www.w3.org/2000/svg" xmlns:svg="http://www.w3.org/2000/svg" id="svg3000" width="580" height="580" x="0" y="0" enable-background="new 0 0 580 580" version="1.1" viewBox="0 0 580 580" xml:space="preserve"><metadata id="metadata3013"/><path id="path7852" fill="#fff" fill-opacity=".8" fill-rule="nonzero" stroke="#fff" stroke-dasharray="none" stroke-linecap="square" stroke-linejoin="miter" stroke-miterlimit="4" stroke-opacity=".8" stroke-width="1.5" d="m 519.08806,364.32388 a 53.537739,53.537739 0 1 1 -107.07548,0 53.537739,53.537739 0 1 1 107.07548,0 z" transform="translate(-30.094341,-207.01258)"/><path id="path7852-7" fill="#fff" fill-opacity=".8" fill-rule="nonzero" stroke="#fff" stroke-dasharray="none" stroke-linecap="square" stroke-linejoin="miter" stroke-miterlimit="4" stroke-opacity=".8" stroke-width="1.5" d="m 519.08806,364.32388 a 53.537739,53.537739 0 1 1 -107.07548,0 53.537739,53.537739 0 1 1 107.07548,0 z" transform="translate(-26.902515,-46.053449)"/><path id="path7852-4" fill="#fff" fill-opacity=".8" fill-rule="nonzero" stroke="#fff" stroke-dasharray="none" stroke-linecap="square" stroke-linejoin="miter" stroke-miterlimit="4" stroke-opacity=".8" stroke-width="1.5" d="m 519.08806,364.32388 a 53.537739,53.537739 0 1 1 -107.07548,0 53.537739,53.537739 0 1 1 107.07548,0 z" transform="translate(-149.10378,73.411962)"/><path id="path7852-8" fill="#fff" fill-opacity=".8" fill-rule="nonzero" stroke="#fff" stroke-dasharray="none" stroke-linecap="square" stroke-linejoin="miter" stroke-miterlimit="4" stroke-opacity=".8" stroke-width="1.5" d="m 519.08806,364.32388 a 53.537739,53.537739 0 1 1 -107.07548,0 53.537739,53.537739 0 1 1 107.07548,0 z" transform="translate(-322.37422,77.059762)"/></svg>