<svg xmlns="http://www.w3.org/2000/svg" xmlns:svg="http://www.w3.org/2000/svg" id="svg5536" width="64" height="44" version="1.1"><defs id="defs5538"><clipPath id="clipPath1244" clipPathUnits="userSpaceOnUse"><path id="path1246" d="M 0,96 96,96 96,0 0,0 0,96 z"/></clipPath></defs><metadata id="metadata5541"/><g id="layer1" transform="translate(0,-20)"><g id="g1240" fill="#fff" fill-opacity=".8" transform="matrix(0.77593567,0,0,-0.77593567,-5.2449898,79.426964)"><g id="g1242" fill="#fff" fill-opacity=".8" clip-path="url(#clipPath1244)"><g id="g1248" fill="#fff" fill-opacity=".8" transform="translate(34.8691,57.7568)"><path id="path1250" fill="#fff" fill-opacity=".8" fill-rule="nonzero" stroke="none" d="M 0,0 0,-8.48 -18.357,4.979 0,18.433 0,10.04 l 0,-0.035 10.557,0 c 20.748,0 34.062,-6.076 34.062,-23.979 0,-17.898 -13.314,-23.972 -34.062,-23.972 l -23.761,0 0,9.967 23.761,0 c 17.675,0 24.093,3.796 24.093,14.005 0,10.211 -6.418,14.009 -24.093,14.009 L 0,0.035 0,0 z"/></g></g></g></g></svg>