<svg xmlns="http://www.w3.org/2000/svg" xmlns:svg="http://www.w3.org/2000/svg" id="Layer_1" width="618" height="618" x="0" y="0" enable-background="new 0 0 512 512" version="1.1" viewBox="0 0 618 618" xml:space="preserve"><metadata id="metadata6275"/><path id="path6269" fill="#333" fill-opacity=".6" d="M 501,277.02116 H 437 309 v -96 c 0,-70.562 -57.406,-127.999997 -128,-127.999997 -70.578,0 -128,57.437997 -128,127.999997 v 96 h 64 v -96 c 0,-35.313 28.703,-64 64,-64 35.281,0 64,28.688 64,64 v 96 c -35.344,0 -64,28.656 -64,64 v 160 c 0,35.344 28.656,64 64,64 h 256 c 35.344,0 64,-28.656 64,-64 v -160 c 0,-35.344 -28.656,-64 -64,-64 z m -112,155.094 v 52.906 c 0,8.844 -7.156,16 -16,16 -8.844,0 -16,-7.156 -16,-16 v -52.906 c -9.375,-5.563 -16,-15.375 -16,-27.094 0,-17.688 14.313,-32 32,-32 17.687,0 32,14.313 32,32 0,11.719 -6.625,21.531 -16,27.094 z"/></svg>